<svg xmlns="http://www.w3.org/2000/svg" xmlns:xlink="http://www.w3.org/1999/xlink" width="1920" zoomAndPan="magnify" viewBox="0 0 1440 809.999993" height="1080" preserveAspectRatio="xMidYMid meet" version="1.0"><defs><filter x="0%" y="0%" width="100%" height="100%" id="d86b23095b"><feColorMatrix values="0 0 0 0 1 0 0 0 0 1 0 0 0 0 1 0 0 0 1 0" color-interpolation-filters="sRGB"/></filter><mask id="80ab63e912"><g filter="url(#d86b23095b)"><rect x="-144" width="1728" fill="#000000" y="-80.999999" height="971.999992" fill-opacity="0.19"/></g></mask><clipPath id="e5743dc56d"><path d="M 0.695312 0 L 1331.304688 0 L 1331.304688 810 L 0.695312 810 Z M 0.695312 0 " clip-rule="nonzero"/></clipPath><clipPath id="78716c8a92"><path d="M 666 -286.609375 C 298.5625 -286.609375 0.695312 11.257812 0.695312 378.695312 C 0.695312 746.132812 298.5625 1044 666 1044 C 1033.4375 1044 1331.304688 746.132812 1331.304688 378.695312 C 1331.304688 11.257812 1033.4375 -286.609375 666 -286.609375 Z M 666 -286.609375 " clip-rule="nonzero"/></clipPath><clipPath id="3ad2457f80"><rect x="0" width="1332" y="0" height="810"/></clipPath><mask id="fff5df58cb"><g filter="url(#d86b23095b)"><rect x="-144" width="1728" fill="#000000" y="-80.999999" height="971.999992" fill-opacity="0.11"/></g></mask><clipPath id="eb8b054721"><path d="M 0.5625 0 L 1074 0 L 1074 810 L 0.5625 810 Z M 0.5625 0 " clip-rule="nonzero"/></clipPath><clipPath id="66a57e4c97"><path d="M 537.28125 -151.304688 C 240.859375 -151.304688 0.5625 88.992188 0.5625 385.414062 C 0.5625 681.835938 240.859375 922.132812 537.28125 922.132812 C 833.703125 922.132812 1074 681.835938 1074 385.414062 C 1074 88.992188 833.703125 -151.304688 537.28125 -151.304688 Z M 537.28125 -151.304688 " clip-rule="nonzero"/></clipPath><clipPath id="610529a9c4"><rect x="0" width="1075" y="0" height="810"/></clipPath><mask id="3844655153"><g filter="url(#d86b23095b)"><rect x="-144" width="1728" fill="#000000" y="-80.999999" height="971.999992" fill-opacity="0.11"/></g></mask><clipPath id="17c657aad6"><path d="M 1 0 L 811 0 L 811 810 L 1 810 Z M 1 0 " clip-rule="nonzero"/></clipPath><clipPath id="915625757a"><path d="M 406 0 C 182.324219 0 1 181.324219 1 405 C 1 628.675781 182.324219 810 406 810 C 629.675781 810 811 628.675781 811 405 C 811 181.324219 629.675781 0 406 0 Z M 406 0 " clip-rule="nonzero"/></clipPath><clipPath id="6a96db5d28"><rect x="0" width="812" y="0" height="810"/></clipPath><mask id="ec0fca0568"><g filter="url(#d86b23095b)"><rect x="-144" width="1728" fill="#000000" y="-80.999999" height="971.999992" fill-opacity="0.11"/></g></mask><clipPath id="eef0d65c4b"><path d="M 1.128906 0.128906 L 550.871094 0.128906 L 550.871094 549.871094 L 1.128906 549.871094 Z M 1.128906 0.128906 " clip-rule="nonzero"/></clipPath><clipPath id="3ac3b96eeb"><path d="M 276 0.128906 C 124.195312 0.128906 1.128906 123.195312 1.128906 275 C 1.128906 426.804688 124.195312 549.871094 276 549.871094 C 427.804688 549.871094 550.871094 426.804688 550.871094 275 C 550.871094 123.195312 427.804688 0.128906 276 0.128906 Z M 276 0.128906 " clip-rule="nonzero"/></clipPath><clipPath id="d740b80339"><rect x="0" width="552" y="0" height="550"/></clipPath></defs><rect x="-144" width="1728" fill="#ffffff" y="-80.999999" height="971.999992" fill-opacity="1"/><rect x="-144" width="1728" fill="#0900e9" y="-80.999999" height="971.999992" fill-opacity="1"/><g mask="url(#80ab63e912)"><g transform="matrix(1, 0, 0, 1, 54, 0.000000000000039746)"><g clip-path="url(#3ad2457f80)"><g clip-path="url(#e5743dc56d)"><g clip-path="url(#78716c8a92)"><path fill="#ffffff" d="M 0.695312 -286.609375 L 1331.304688 -286.609375 L 1331.304688 1044 L 0.695312 1044 Z M 0.695312 -286.609375 " fill-opacity="1" fill-rule="nonzero"/></g></g></g></g></g><g mask="url(#fff5df58cb)"><g transform="matrix(1, 0, 0, 1, 176, 0.000000000000039746)"><g clip-path="url(#610529a9c4)"><g clip-path="url(#eb8b054721)"><g clip-path="url(#66a57e4c97)"><path fill="#ffffff" d="M 0.5625 -151.304688 L 1074 -151.304688 L 1074 922.132812 L 0.5625 922.132812 Z M 0.5625 -151.304688 " fill-opacity="1" fill-rule="nonzero"/></g></g></g></g></g><g mask="url(#3844655153)"><g transform="matrix(1, 0, 0, 1, 314, 0.000000000000039746)"><g clip-path="url(#6a96db5d28)"><g clip-path="url(#17c657aad6)"><g clip-path="url(#915625757a)"><path fill="#ffffff" d="M 1 0 L 811 0 L 811 810 L 1 810 Z M 1 0 " fill-opacity="1" fill-rule="nonzero"/></g></g></g></g></g><g mask="url(#ec0fca0568)"><g transform="matrix(1, 0, 0, 1, 444, 130)"><g clip-path="url(#d740b80339)"><g clip-path="url(#eef0d65c4b)"><g clip-path="url(#3ac3b96eeb)"><path fill="#ffffff" d="M 1.128906 0.128906 L 550.871094 0.128906 L 550.871094 549.871094 L 1.128906 549.871094 Z M 1.128906 0.128906 " fill-opacity="1" fill-rule="nonzero"/></g></g></g></g></g></svg>