<svg xmlns="http://www.w3.org/2000/svg" xmlns:xlink="http://www.w3.org/1999/xlink" width="1920" zoomAndPan="magnify" viewBox="0 0 1440 809.999993" height="1080" preserveAspectRatio="xMidYMid meet" version="1.0"><defs><filter x="0%" y="0%" width="100%" height="100%" id="83677b573a"><feColorMatrix values="0 0 0 0 1 0 0 0 0 1 0 0 0 0 1 0 0 0 1 0" color-interpolation-filters="sRGB"/></filter><mask id="3c2f62328e"><g filter="url(#83677b573a)"><rect x="-144" width="1728" fill="#000000" y="-80.999999" height="971.999992" fill-opacity="0.16"/></g></mask><clipPath id="cf331dd5de"><path d="M 1 0 L 1255.230469 0 L 1255.230469 810 L 1 810 Z M 1 0 " clip-rule="nonzero"/></clipPath><clipPath id="bc5582c4a8"><path d="M 628.113281 -222.113281 C 281.769531 -222.113281 1 58.652344 1 405 C 1 751.347656 281.769531 1032.113281 628.113281 1032.113281 C 974.460938 1032.113281 1255.230469 751.347656 1255.230469 405 C 1255.230469 58.652344 974.460938 -222.113281 628.113281 -222.113281 Z M 628.113281 -222.113281 " clip-rule="nonzero"/></clipPath><clipPath id="26d2720241"><rect x="0" width="1256" y="0" height="810"/></clipPath><mask id="8713880d3e"><g filter="url(#83677b573a)"><rect x="-144" width="1728" fill="#000000" y="-80.999999" height="971.999992" fill-opacity="0.16"/></g></mask><clipPath id="8fb6346030"><path d="M 0.0585938 0 L 1032.171875 0 L 1032.171875 810 L 0.0585938 810 Z M 0.0585938 0 " clip-rule="nonzero"/></clipPath><clipPath id="eb9df524f4"><path d="M 516.113281 -111.058594 C 231.105469 -111.058594 0.0585938 119.988281 0.0585938 405 C 0.0585938 690.011719 231.105469 921.058594 516.113281 921.058594 C 801.125 921.058594 1032.171875 690.011719 1032.171875 405 C 1032.171875 119.988281 801.125 -111.058594 516.113281 -111.058594 Z M 516.113281 -111.058594 " clip-rule="nonzero"/></clipPath><clipPath id="2e55dec810"><rect x="0" width="1033" y="0" height="810"/></clipPath><mask id="b01623aa66"><g filter="url(#83677b573a)"><rect x="-144" width="1728" fill="#000000" y="-80.999999" height="971.999992" fill-opacity="0.16"/></g></mask><clipPath id="7de4ad611e"><path d="M 0.601562 0 L 825.628906 0 L 825.628906 810 L 0.601562 810 Z M 0.601562 0 " clip-rule="nonzero"/></clipPath><clipPath id="91c8f691a4"><path d="M 413.113281 -7.515625 C 185.289062 -7.515625 0.601562 177.175781 0.601562 405 C 0.601562 632.824219 185.289062 817.515625 413.113281 817.515625 C 640.941406 817.515625 825.628906 632.824219 825.628906 405 C 825.628906 177.175781 640.941406 -7.515625 413.113281 -7.515625 Z M 413.113281 -7.515625 " clip-rule="nonzero"/></clipPath><clipPath id="5d386225af"><rect x="0" width="826" y="0" height="810"/></clipPath><mask id="3199397134"><g filter="url(#83677b573a)"><rect x="-144" width="1728" fill="#000000" y="-80.999999" height="971.999992" fill-opacity="0.16"/></g></mask><clipPath id="799520c68f"><path d="M 0.683594 0.570312 L 593.546875 0.570312 L 593.546875 593.429688 L 0.683594 593.429688 Z M 0.683594 0.570312 " clip-rule="nonzero"/></clipPath><clipPath id="e70e9d0f41"><path d="M 297.113281 0.570312 C 133.402344 0.570312 0.683594 133.285156 0.683594 297 C 0.683594 460.714844 133.402344 593.429688 297.113281 593.429688 C 460.828125 593.429688 593.546875 460.714844 593.546875 297 C 593.546875 133.285156 460.828125 0.570312 297.113281 0.570312 Z M 297.113281 0.570312 " clip-rule="nonzero"/></clipPath><clipPath id="891a5b3371"><rect x="0" width="594" y="0" height="594"/></clipPath></defs><rect x="-144" width="1728" fill="#ffffff" y="-80.999999" height="971.999992" fill-opacity="1"/><rect x="-144" width="1728" fill="#6f3bef" y="-80.999999" height="971.999992" fill-opacity="1"/><g mask="url(#3c2f62328e)"><g transform="matrix(1, 0, 0, 1, 80, 0.000000000000039746)"><g clip-path="url(#26d2720241)"><g clip-path="url(#cf331dd5de)"><g clip-path="url(#bc5582c4a8)"><path fill="#ffffff" d="M 1 -222.113281 L 1255.230469 -222.113281 L 1255.230469 1032.113281 L 1 1032.113281 Z M 1 -222.113281 " fill-opacity="1" fill-rule="nonzero"/></g></g></g></g></g><g mask="url(#8713880d3e)"><g transform="matrix(1, 0, 0, 1, 192, 0.000000000000039746)"><g clip-path="url(#2e55dec810)"><g clip-path="url(#8fb6346030)"><g clip-path="url(#eb9df524f4)"><path fill="#ffffff" d="M 0.0585938 -111.058594 L 1032.171875 -111.058594 L 1032.171875 921.058594 L 0.0585938 921.058594 Z M 0.0585938 -111.058594 " fill-opacity="1" fill-rule="nonzero"/></g></g></g></g></g><g mask="url(#b01623aa66)"><g transform="matrix(1, 0, 0, 1, 295, 0.000000000000039746)"><g clip-path="url(#5d386225af)"><g clip-path="url(#7de4ad611e)"><g clip-path="url(#91c8f691a4)"><path fill="#ffffff" d="M 0.601562 -7.515625 L 825.628906 -7.515625 L 825.628906 817.515625 L 0.601562 817.515625 Z M 0.601562 -7.515625 " fill-opacity="1" fill-rule="nonzero"/></g></g></g></g></g><g mask="url(#3199397134)"><g transform="matrix(1, 0, 0, 1, 411, 108)"><g clip-path="url(#891a5b3371)"><g clip-path="url(#799520c68f)"><g clip-path="url(#e70e9d0f41)"><path fill="#ffffff" d="M 0.683594 0.570312 L 593.546875 0.570312 L 593.546875 593.429688 L 0.683594 593.429688 Z M 0.683594 0.570312 " fill-opacity="1" fill-rule="nonzero"/></g></g></g></g></g></svg>