<svg xmlns="http://www.w3.org/2000/svg" width="3350.6" height="200.5" viewBox="0 0 3350.6 200.5"><title>Grunge pencil brush sketch stroke 24</title><g id="Layer_2" data-name="Layer 2"><g id="GRUNGE_BRUSH" data-name="GRUNGE BRUSH"><g id="Grunge_pencil_brush_sketch_stroke_24" data-name="Grunge pencil brush sketch stroke 24"><path d="M2576.6,186.2c-35.6,0-71.1-.3-106.6.2-13.3.2-27.3-3.7-39.6,6.1-2.8,2.3-9.2-.7-13.4.7-11.6,3.9-22.5-15.2-34-.6-11.5.2-22.9.5-34.3.5-67.7,0-135.3-.2-203,.2-15.4.1-31.8-4.3-46.3,6-1.4,1-5.8-2.4-8.9-3.3s-7.8-3-9.1-1.8c-7.6,7.6-16.9,5.6-25.9,5.6H1845.7c-8.9,0-17.9,1.3-26.1-5.2-4.1-3.2-10.3-1.4-16,.8-15.8,6.3-21.6,6.9-35.4.8-8.3-3.7-14.8-4.3-22,1a12.1,12.1,0,0,1-6.1,2.5c-14.9.2-29.8.1-44.7.2-23.8-11.2-49-5.7-73.7-6.6-6.2-.2-10.8-5.3-15.4-5.3s-9,5.9-15.3,5.1c-11-1.5-23.1,3.6-32.7-5.7-13.3-.3-26.9-4.5-39.7,3.3-2.4,1.4-7.4,2.1-9.1.7-5.7-5.1-12.2-5.3-19.1-5.2-12.7.2-25.3.5-37.9-.1-11-.6-22.3,2.6-32.9-5.5-4.4-3.4-13.3-1.1-20.1-1.1l-154.8-.2c-7.8-.1-15.8,1.5-22.7-4.8-1.7-1.6-6.8-1.4-9,0-15,9.4-31.1,3.2-46.6,4.1-7.3-10-13.9.4-20.3,1.7-4.9.9-7.8,4.9-14.1.8-8.2-5.4-20.6,1.9-28.4-7.5-11.7,13.9-21.9-4.5-34.2-1.6s-25,.7-37.6.2c-4.4-.1-9.5-.5-12.8-2.9-7.4-5.3-15.7-1.7-23-4-10-3-17.4,15-27.7,2.6-10.1-.8-20.2-1.8-30.3-2.2s-20.6-.1-30.9-.2c-3.4-.1-7.7.3-9.8-1.5-7.9-7.1-17.2-5.1-26.1-5.1-30.9-.2-61.9.2-92.9-.3-11-.1-22.3,2.6-32.9-5.5-4.4-3.4-13.2-1.2-20-1.2l-189.2-.2c-7.8,0-15.9,1.7-22.7-4.8-4-3.8-8-.8-12.1,1.7-2.6,1.6-7.8,3.5-9,2.4-8.6-8.7-19.3-5.8-29.2-5.9-41.3-.3-82.6-.1-123.9-.2-12.2-.1-24.7,1.9-36-6.2-2.6-1.9-10.5-.6-12.5,1.9-5.7,7.2-11.6-5.2-17.1,1.5s-9.8-.5-14.9-1.8c-7.4-2-15.6-1.7-23.4-2s-14.4,12.3-24.3,2.2c-6.6-6.6-18.3,1.3-25.6-5.9-3.6-3.6-5.7-.4-8.4,1.1-7.4,4.2-16.3,4.6-22.7.6s-15.1-6.8-22.5-4.8c-10.7,2.9-16.1-8-25.6-7.3a128.2,128.2,0,0,1-24-.3c-3-.3-6.2-2.7-8.5-5-9.1-9-20.3-13.1-32.6-15.6-4-.8-8-4.2-10.8-7.5s-3.1-6.8-1.9-9,6.9-4.1,8.4-3c5.7,4.3,11.4,6.6,18.8,6.2s15.1.2,22.8,4.7,17.3,4.3,25.6-2c6-4.6,12.7-4.3,18.7.2,3.9,3,8,4.6,12.7,3.8,16.2-2.8,29.7,10.6,46,7.5,7,8,16.5,5.9,25.5,6.5,4.3.4,9.2,1.1,12.6,3.4,5.8,3.9,10.2,3.4,15.2-.8a13.4,13.4,0,0,1,15.9-1.5c17.1,10.7,35.7,3.8,53.4,5,3.2.2,7.9-4.8,10-8.5,6.7-11.5-1.7-32.9-14.1-37.4a3.3,3.3,0,0,0-2.7.5c-11.2,9.3-24.3,3.5-36.4,4.5s-25.2.2-37.8.2c-6.8,0-13.5.5-19.2-4.9-4-3.9-8.2-1-12.1,1.7-6.1,4.5-12.1,3.6-18.9.8-15.2-6.2-18.7-7.1-35.3-.4-6.1,2.5-8.8-6.3-14.2-.9-2.7,2.7-8.2,2.8-12.5,3.7-2.2.4-5.1.9-6.8-.2-14.4-9-30.5-7-46.1-6.5-13.4.4-24-5-33.5-13.3-6-5.3-11.4-11.3-17-17C3.5,35.1-2.3,31,1,25c1.5-2.7,7.9-2.5,12-4.1s10-4.6,15.1-6.8,11-8.6,16.9-.5c15.5-1.1,31.7,5.6,46.4-4.5,4.6-3.2,8.2-.6,12.2,1.9s7.9,3.5,9,2.4c8.6-8.8,19.2-5.7,29.2-6,6.9-.1,13.1-.7,19.2-5.1,3.1-2.3,9-2.5,13-1.4,27,7.3,26.9,7.4,48.1,1.5,4.3-1.1,8.2,6.3,14,.2s10,1,14.7,3.5c1.9,1,4.4,1.1,6.5,1.1,27.6.1,55.1.3,82.6-.1,4.1-.1,8.5-2.3,12.3-4.5,5.5-3.1,11.5-3.7,16-.4,6.1,4.4,12.2,5.3,19.2,5.2q18.9-.3,37.8,0c9,.1,18-1.5,25.9,5.8,2.4,2.1,9.9,1.8,12.8-.3,9.7-7.1,18-7.4,27.8-.1,5.1,3.8,13.5-.3,19,5.8,1.6,1.7,6.8,2.3,8.9,1C533.7,11,547,11,561,20c3.1,2,9.1,1.3,13.1,0,22-7.4,21.8-7.3,48.2-.3,7.5,1.9,15.8.7,23.6,1.5,13.2,1.4,27.7-4.6,39.3,6.4L723,28c7.8.2,15.3-.4,22.7,4.9s15.2,2.3,21-4.8c4-4.9,7.1-4.2,13.6-2.2,15.7,4.9,31.3,10.8,48.9,9.5,13-.9,27.2-4.6,39.9,4.1,1.9,1.3,7.5-4.2,11.4-4.3,17.1-.5,34.4-.4,51.5-.2,3.2.1,7.1.9,9.4,2.9,4.9,4.2,10.4,3.8,16.1,3.8h61.9c8,0,15.6-.4,22.7,5.2,2.8,2.2,8.9,2,13,.9,27.1-6.6,27.1-6.8,54.9-.8,9.5-8.4,17.5,3.5,27.1,1.9s20.6-.2,30.9-.7c3.1-.1,6-2.7,9.1-3.6s10.1-4.2,12.7-2.4c14.6,9.7,30.7,5.8,46.3,6.3s29.8-.2,44.7.2c9.9.3,20.4-2.7,29.5,5.1,2.8,2.4,8.7,1.5,13.2,1.5,16,.2,32.1-.3,48.1.3,12.2.4,25-3.4,36.2,5.8,2.8,2.3,8.8.8,13.4.8,18.3.1,36.7-.1,55,.2,8.9.2,18.5-2.8,25.9,5.1,6.9-3.5,13.8-6,22-5.3,10,.9,20.6-1.9,29,6.6,1.2,1.2,4.4.3,6.7.3,6.8-.1,13.5-10,20.4-.2,6.8.1,13.7,0,20.6.3s13.2-.7,19.1-5.5c4.1-3.4,8.1.5,12.1,2.9s7.5,2.4,9,1c7.6-6.9,13.5-5,20.9.6,3.8,3,9.4-4.2,11.7-3.5,33.5,9.9,67.6,2.8,101.2,4.2s68.8.2,103.2.2,68.8,0,103.2.2c7.8,0,15.3-.7,23,4.1,5,3.3,13,2.5,19.7,2.5,51.6.2,103.2.1,154.8.2,8.9,0,17.2.9,26.2,4.5s22.3,1.5,33.6,1.8c12.9-11.4,28.5-4.3,42.8-6.3,20.3,10.6,42.1,6.2,63.4,6.7,22.9.5,45.9.1,68.8.1s43.6-.1,65.3.1c4.9,0,8.9-1,12.6-4.1s11.7-4.5,15.9-1.5c7.2,5.2,14.5,5.5,22.6,5.5,29.8-.1,59.6-.3,89.4.2,14.4.3,29.7-3.7,42.8,6.4.7.6,2.3.4,3.3.1,5.1-1.6,10.9-5.8,15-4.5s9.8,4.9,15.8,4.7,11.1-.2,16-4.3,5.4,1.9,8.2,2.9c5.6,1.8,12.1,3.5,16-1.2,5.7-6.9,10.7,3.6,17.4-1.2s15.1-2.4,22.9-3,12.9,1.2,19.3,4.6,13.2,2,20,2c75.6.2,151.3-.2,227,.5,14.2.1,29.8-5.5,42.8,5.6,17.8-12.2,37.8-2.9,56.5-6.1,3.2-.6,6.2-2.3,9.2-3.6,10.9-4.9,21.7-4.1,32.8-.5,19.7,6.3,21,5.9,45.3-1,5.3-1.4,12.4-3.2,16.5-1,19.5,10.4,40.1,4.6,60.2,6.2,5.7.4,11.5-.4,17.1.5,3,.4,5.9,3.1,8.4,5.2,6.4,5.2,6.2,11.7-.5,16.9-2.6,2-5.8,4.9-8.6,4.7-15.5-1.1-31.5,4.5-46.4-5.9-5.2-3.6-13.5-.7-18.1,5.8-1.1,1.5-2.5,4.6-1.9,5.1,5.6,5.5,11.6,10.7,17.5,15.9,11.9-2.7,19.9,10.3,32.4,7.2s24.8,10.4,39.3,7.6c4.3-.9,5.3,6.2,5,10.9s-1.9,8.7-7.8,8.7c-17.2-.1-34.4.1-51.6.1-11.2-.1-11.2-.2-16.4-14.3-2.5-6.7-6.7-12.4-14.1-13-5.9-.6-10.9-1.5-15.7-5.3s-8.2-.8-12,2c-6.2,4.4-13.3,5.2-18.8.1-9.2-8.5-23.4,1.4-31.5-9.5-6.6,4.6-14.1,5-22,5.8-11.9,1.2-22.2-2.6-32.2-7.6-7-3.4-13-10.7-20.6-1.6-13.5-7.3-28.2-4.6-42.4-4.7-29.8-.3-59.6,0-89.4-.2-6.7,0-13.8,1.3-19.4-4.4-1.3-1.4-4.7-2.5-6-1.8-7.9,4.4-15.5,10-23.7.6-6.9,7.5-13.4,5.7-20.6-.1-2.2-1.8-7.5-2.2-9.8-.7-9.4,6.1-18.1,7.9-27-.3-21.8.1-43.5.1-65.3.7-2.6.1-5.3,4-7.7,6.5s-.6,5.9,2.7,6.3c5.7.8,8.3,4.2,6.9,9.1s-6.8,4.7-11.3,4.7c-1.1,0-2.7.4-3.3-.2-7.3-7.3-16.4-6.9-25.6-6.6s-7.7,0-23.7-11.9a8.3,8.3,0,0,0-6.3-1.2c-2,.5-4,2.2-5.5,3.8-6.5,7.1-12.4,13.1-22.8,4.4-3.5-3-10.8-1.8-16.4-1.8q-37.9-.3-75.7-.1c-5.7,0-11.5.6-15.9-4.2-2-2.2-3.3-1.6-5.6.3-7.2,6-14.4,5.2-21.9,0-2.5-1.8-6.2-2.2-9.4-2.9-9.2-1.9-17.6,14.3-27.2,1.1-9.1-.4-18.2-1.1-27.2-1.1-29.8-.2-59.7-.1-89.5-.1-5.7,0-11.4-.2-17.2,0s-10.8-.7-16-4.2c-6.9-4.9-15.2-3.4-22.8-1.3-27.2,7.6-39.4,7.6-68.8-.4-3.2-.9-7.8-2-9.9-.5-9.4,6.5-17.6,6.6-27.4.1-4-2.6-11.2-.5-16.9-.5-37.9,0-75.7-.7-113.5.1-20,.5-40.5-4.4-60,4.8-2.7,1.2-9.7-5.5-11.7-4.1-9.5,6.6-17.5,8.2-28,1.3-4.9-3.3-15-4.3-19.5-1.3-8.4,5.6-16.9,6.1-25.9,5.9s-16,2-22.8-4.5c-.8-.8-5.3,3.4-8.1,3.5-19.4.5-38.8.8-58.2.7-3,0-5.8-3.3-9-4.2s-10.1-3.5-12.9-1.7c-15.8,10.3-33.2,4.6-49.8,6.2-4.9.5-8.5-2.1-12.6-4.1-9.5-4.8-21.3-5.4-29.4-.7-10.1,5.8-19.7,4.8-29.6,4.8-126.1.2-252.3,0-378.4.3-11,0-22.3-2.8-32.9,5.2-4.5,3.4-13.2,1.4-20,1.4-41.3.1-82.6.8-123.9-.3-11.3-.3-18.9,5.9-28.2,8.9-.7.2-1.5,1.8-1.2,2.3s1.6,2.1,2.5,2.2c6.8.4,13.6.6,20.4.7s13,.4,19.4,4.6c2.7,1.8,9.5-3.5,14.6-4.3s10.6-1.4,13.2,1c8,7.1,17.1,5.6,26,5.6,50.5.1,100.9-.1,151.4.1,9.9.1,20.1-2.2,29.5,5.1,3.7,2.9,11.2.3,16.5,1.8,9.3,2.5,18.2-10.4,27.3-.3h31c10.3.1,20.6.2,30.9.1,5.8,0,11.3-.2,16,4.2,1.4,1.4,5,2.8,5.9,2.1,9.3-7.3,17.4-4.4,27.4-.2,7.8,3.3,18.1.8,27.2.8h58.5c10.3,0,20.6.1,30.9-.1,5.9-.2,11.1.6,15.9,4.6s6-6.3,11-2c2.4,2.1,5.9,3.3,9,4s6.9.2,10.3.2c21.8,0,43.7-1.1,65.3.4s43.4-6.7,63.7,5.3c9.7-8.2,21.5-6,32.4-5.4,14.4.8,29.5-4.8,43.4,4.7,2.7,1.9,9-8.1,14.4-3.5s9.1,1.9,14.3-.5a15.3,15.3,0,0,1,16,2.2c7.2,5.9,14.4,5.4,21.8-.1s12.8-4.6,18.8-.2c8.3,6.2,18.1,6.5,25.6,2s14.9-4.7,22.8-4.7c38.9-.1,77.9.3,116.9-.4,13.2-.2,27.7,4.7,39.4-6.1,12.3.8,24.7-3.2,36.9,2.6,15,7.1,31.2,5.6,46.2,1,6.5-2,12.6-4.1,19.4-4.1h206.3c6.8,0,13.5-.5,19.4,4.6s11,3.7,15.9.5c13.8-9,28.4-6.3,42.3-2.2,5.5,1.6,9.3,5.2,15.2.9a73,73,0,0,1,17.6-9.5c4-1.4,10.4-2.2,12.9,0,8,6.9,17.1,5.6,26.1,5.7,13.7.2,27.6,1.1,41.2-.4,11.1-1.2,19.3,5.1,28.9,7.6a5.8,5.8,0,0,1,2.4,2.2c-1.1,1.6-2.4,4-3.6,4.1-11.5.3-23-.3-34.4.4s-22.5-3.2-32.9,5.4c-3.5,2.9-11,1.2-16.6,1.3ZM1148.2,136.8a23.3,23.3,0,0,0-1.1-2.8c-.4-.6-33.1-5.9-33.5-5.6-6,4.8-13,2.6-19.6,2.7-14.7.5-29.4.4-44.1.7-.9,0-1.9,1.2-2.5,2.1s.4,2.2.8,2.2c8.8,1.2,14.2,10.1,24.5,9.1,13.5-1.2,27.2-.4,40.8-.1a57.1,57.1,0,0,1,12.9,2.2c2.7.7,4.3,4.9,8.4,1.5s9-5.7,13.3-8.7C1148.7,139.8,1148.2,138,1148.2,136.8ZM746.3,77.1v-1c-10.3,0-20.7-.1-31,.1s-20.4.5-30.6,1c-.9.1-1.7,1.4-2.6,2.2.7.7,1.4,2.1,2.1,2.1,11.3.6,22.7.9,34,1.6a82.3,82.3,0,0,1,16.4,2.5c15.1,4.3,50.1,6.1,67,2.5,1.2-.2,2.5-3.6,2.4-5.5s-1.9-5.3-2.9-5.3C782.8,77,764.5,77.1,746.3,77.1Zm271.2,62.2c-.6-2-.7-5.3-1.9-5.8-6-2.4-12.9-3.1-18.4-6.3s-7.4,3.6-11.1,3.6c-11-.2-22.6,3.6-32.6-4.6-.6-.6-3.8,1.2-5.3,2.4-4.7,3.9-8.1-6.5-14-.6-3.3,3.3-10.3,2.8-15.5,4.2-1,.2-1.7,1.4-2.6,2.1,1.6,1.3,3.2,3.3,4.9,3.5,5.6.6,12.3-1.5,16.8.9,17.3,9.4,33.6,9.7,50.9-.2,4.2-2.4,10.8-1.1,15.9,3,2.2,1.8,6,2.4,9.1,2.4C1014.9,144,1016.2,140.9,1017.5,139.3Zm-691-97.6c5.6,0,8.9.1,12.2-.1.9,0,2.5-1.1,2.5-1.8s-.1-3.8-1.1-4.9a26.1,26.1,0,0,0-7.3-6.4c-3.6-1.9-16,6.4-15.2,9.8a3.3,3.3,0,0,0,1.8,2C322.5,41.1,325.6,41.5,326.5,41.7ZM860.8,76.1,854,78.9a16.1,16.1,0,0,0,1.5,2.6c1.3,1.7,2.6,3.6,4.3,4.7s3.3,1,5,1.4c.5-2,1.9-4.4,1.2-5.8S862.4,77.7,860.8,76.1Zm34.5,3.3c1.6,1.1,3.2,3,4.9,3.2a7.5,7.5,0,0,0,5.5-2c1.8-1.9-1.5-4.8-5.4-4.1C898.5,76.9,897,78.4,895.3,79.4ZM287.7,36c-3.8,0-6.6-.1-9.4.1-.8.1-1.6,1.4-2.4,2.1a55.3,55.3,0,0,0,8.3,3C284.8,41.4,286,38.7,287.7,36Z" fill="#e6abff"/><path d="M2837.5,165.5h30.8c7,0,10.4-8.3,18.5-7.1,6.5,1,15.3,2,19.8-1.4,8.7-6.6,11.4-.1,16.2,3.9,2.1,1.7,4.6,5.9,7.5.7,1.6-2.9,2.2-7.7,4.3-8.4a21,21,0,0,1,13.1-.2c6.2,2.2,11.7,6.2,17.7,9.2,1.5.8,4.4,1.6,5.3.8,9-7.8,19.8-2.5,29.5-4.3s15.9,7.5,24.6,9.1a2.7,2.7,0,0,1,.1,2.2c-.6.9-1.6,2.1-2.5,2.2-12.1,1-24.7-2.1-35.8,6.6-2.4,1.8-9.3.3-12.5-2s-7.4-2.6-11.3.7-8.4.9-12-2.1-12.1-5-15.8-1.9c-8.1,6.9-16.9,5.7-25.8,5.7-32,.2-64,.1-95.9,0a26.8,26.8,0,0,1-9.8-1.4c-1.5-.6-2.6-3.6-2.6-5.5s1.6-5.2,2.7-5.3c11.2-1,22.6-1.4,33.9-1.9Z" fill="#e6abff"/><path d="M3146.8,158.8c3.4,0,6.8-.1,10.2,0,7.9,0,17-2.3,23.5.8a79.2,79.2,0,0,0,21.8,7c3.5.6,3.2,2.3.9,4.9-7.9,8.7-12.1,10.6-23.4,4.8-6.6-3.3-13.2-6.3-18.8-2.3-12.6,9.2-26.3,3.6-39.4,5.1-12.4-11.6-28.1-4.4-42-7.3-1-.1-1.7-1.4-2.6-2.1,1.2-1.4,2.4-3.8,3.7-3.9,12.1-.7,24.9,2.2,35.4-6.9h30.7Z" fill="#e6abff"/><path d="M3246.8,174.8c-1.8,1.1-4.1,3.3-6.8,4.2-10.1,3.3-15.7-7.6-24.6-8.2.4-1.8.3-3.9,1.2-5.3,3.8-5.5,8.2-6.7,13-1.1,9.1-8.5,13-.4,17.4,5.6C3247.5,170.7,3246.9,172.2,3246.8,174.8Z" fill="#e6abff"/></g></g></g></svg>