<svg xmlns="http://www.w3.org/2000/svg" width="162" height="123" viewBox="0 0 162 123" fill="none">
<path d="M43.395 2.23532C42.9022 1.54619 42.2527 0.984105 41.4999 0.595444C40.7472 0.206784 39.9128 0.00268884 39.0656 0C37.9962 0.0201078 36.9525 0.331252 36.0466 0.899996C35.1407 1.46874 34.407 2.27358 33.9241 3.22803C33.4703 4.1323 33.2832 5.14705 33.3846 6.15371C33.4861 7.16037 33.8719 8.11738 34.4971 8.9129L47.8466 26.7126C60.0934 43.119 66.7254 63.0362 66.7586 83.5095C66.7757 87.0996 66.0809 90.6576 64.7145 93.9776C63.3481 97.2976 61.3371 100.314 58.7978 102.852C56.2925 105.467 53.2937 107.559 49.9749 109.008C46.656 110.456 43.0829 111.233 39.4621 111.292C38.9515 111.292 38.4381 111.277 37.8569 111.24C30.8858 110.866 24.3001 107.924 19.3689 102.982C14.4377 98.0403 11.51 91.4484 11.1499 84.4765C10.9886 80.7958 11.578 77.1207 12.8822 73.6749C14.1863 70.2292 16.1779 67.0848 18.7358 64.4332C21.2373 61.7121 24.2663 59.5284 27.6385 58.0151C31.0107 56.5017 34.6555 55.6904 38.3512 55.6305L38.9624 55.6372C40.422 55.6192 41.8161 55.0281 42.844 53.9915C43.8719 52.9549 44.4511 51.5559 44.4568 50.0961C44.4625 48.6363 43.8942 47.2328 42.8745 46.1882C41.8547 45.1436 40.4653 44.5417 39.0058 44.5122L38.2426 44.5041C33.0478 44.5755 27.9219 45.7038 23.1772 47.8203C18.4325 49.9367 14.1684 52.997 10.6447 56.8146C7.06154 60.5411 4.27359 64.9573 2.45029 69.7947C0.626985 74.6322 -0.193595 79.7899 0.0384241 84.9544C0.478627 94.9751 4.74795 104.445 11.9657 111.41C19.1835 118.375 28.7992 122.304 38.8292 122.387H38.9623C49.013 122.409 58.6778 118.519 65.9111 111.541C90.7332 88.5505 71.843 39.808 56.7444 20.0364L43.395 2.23532Z" fill="#BBBBBB"/>
<path d="M140.182 20.0364L126.832 2.23665C126.34 1.5467 125.691 0.983934 124.938 0.594972C124.185 0.20601 123.351 0.00205318 122.503 0C121.434 0.0201745 120.39 0.331345 119.484 0.900081C118.578 1.46882 117.845 2.27362 117.362 3.22803C116.908 4.13233 116.721 5.14707 116.822 6.15372C116.924 7.16037 117.31 8.11736 117.935 8.9129L131.284 26.7126C143.531 43.119 150.163 63.0362 150.196 83.5095C150.138 90.7762 147.258 97.736 142.165 102.92C137.072 108.103 130.164 111.105 122.9 111.292C122.389 111.292 121.876 111.277 121.294 111.24C114.323 110.866 107.738 107.924 102.806 102.982C97.8752 98.0403 94.9475 91.4484 94.5873 84.4765C94.4729 80.7948 95.0863 77.1267 96.3925 73.6825C97.6987 70.2383 99.6719 67.0859 102.199 64.406C104.726 61.7261 107.757 59.5714 111.119 58.0655C114.481 56.5596 118.107 55.7322 121.789 55.6306L122.4 55.6372C123.86 55.6192 125.254 55.0281 126.281 53.9915C127.309 52.9549 127.889 51.5559 127.894 50.0961C127.9 48.6363 127.332 47.2328 126.312 46.1882C125.292 45.1436 123.903 44.5417 122.443 44.5122L121.68 44.5041C116.507 44.624 111.409 45.7686 106.681 47.8718C101.953 49.9749 97.6897 52.9948 94.1368 56.7567C90.5838 60.5186 87.8121 64.9477 85.9822 69.7878C84.1523 74.6279 83.3004 79.7829 83.4759 84.9544C83.9161 94.9751 88.1854 104.445 95.4032 111.41C102.621 118.375 112.237 122.304 122.267 122.387H122.4C132.451 122.409 142.115 118.519 149.349 111.541C174.171 88.5505 155.281 39.808 140.182 20.0364Z" fill="#BBBBBB"/>
</svg>