<svg xmlns="http://www.w3.org/2000/svg" viewBox="0 0 996.89 264"><title>tim-25</title><path d="M972.45,367H954.9c-22.51,0-23.94,2.48-25.68,6.33l-34.86,83.73c-11.6,27.78-23.57,57.68-28.16,73.19C862,514.74,854.23,494,838,455.63l-34.87-82.3c-2.11-5-10.92-6.33-29.89-6.33H753.55c-19.35,0-23.27,1.73-23.27,5.65V625.28c0,4.59,3.92,5.64,24,5.64h10.92c19.72,0,25.37-1,25.37-5.64V475.43H792a90.9,90.9,0,0,0,4.6,13.4l40.13,94c1.73,4.22,3.92,6,22.52,6h12c19,0,20.4-1.43,22.14-6l36.59-90.44a168.24,168.24,0,0,0,6-16.94h1.43V625.35c0,4.6,3.84,5.65,24.62,5.65h10.55c19.35,0,25-1,25-5.65V372.65c0-3.92-5.64-5.65-25-5.65m-292.09,5.65c0-3.92-5.57-5.65-24.93-5.65H644.14c-20.41,0-23.95,1.73-23.95,5.65V625.28c0,4.59,3.54,5.64,23.95,5.64h11.29c19.36,0,25-1,25-5.64ZM573.06,367c5.27,0,6.32.68,6.32,19.35V403.6c0,17.92-1.43,20-6.32,20H513.27V625.28c0,4.59-5.65,5.64-25.68,5.64H477.05c-20.41,0-23.95-1-23.95-5.64V423.63H393.32c-4.9,0-6.33-1.44-6.33-20V386.35C386.92,367,388,367,393.24,367Z" transform="translate(-0.56 -367)" fill="#063b88"/><path d="M126.91,574.45H15.77A15.16,15.16,0,0,0,.56,589.66v26.05A14.76,14.76,0,0,0,5,626.41a15,15,0,0,0,10.77,4.44H126.91ZM312,579a15,15,0,0,0-10.76-4.52H190.08v56.4H301.23A15,15,0,0,0,312,626.33a15.14,15.14,0,0,0,4.37-10.69v-26A15,15,0,0,0,312,579m0-103.69a15,15,0,0,0-10.76-4.52H190.08v56.4H301.23A15,15,0,0,0,312,522.64,15.14,15.14,0,0,0,316.36,512V485.82A14.93,14.93,0,0,0,312,475.28m-185.08-4.52H15.77A15.05,15.05,0,0,0,5,475.21,15.21,15.21,0,0,0,.56,485.9V512a15.3,15.3,0,0,0,15.21,15.21H126.91Zm174.32-47.29H15.77A15.38,15.38,0,0,1,5,419,15,15,0,0,1,.56,408.26V382.21A15.21,15.21,0,0,1,5,371.52a14.92,14.92,0,0,1,10.77-4.44H301.23a15.16,15.16,0,0,1,15.13,15.21v26a15,15,0,0,1-15.13,15.13" transform="translate(-0.56 -367)" fill="#e40d2c"/></svg>